#!OML:ASF E:\acrobat2\Project_11_07_03\Capture day 1\Session 1\Acrobat.ASF
:FULLY-SPECIFIED
:DEGREES
385
root 11.54 17.8455 26.8359 -172.474 -54.8374 -180.523
lowerback 4.33189 -2.99922 0.180466
upperback 4.70069 -4.18323 -3.86676
thorax 2.11738 -2.13115 -3.98357
lowerneck 4.2982 12.1199 5.54463
upperneck -9.24817 16.2106 -5.43337
head -2.79386 8.06075 -3.18577
rclavicle -5.00937e-014 4.13472e-014
rhumerus -46.5117 -9.77316 -29.8985
rradius 38.5999
rwrist -24.921
rhand -12.7567 -50.0785
rfingers 7.12502
rthumb 13.3278 -79.6323
lclavicle -5.00937e-014 4.13472e-014
lhumerus 26.2876 -47.7576 47.011
lradius 32.5825
lwrist 12.6867
lhand -24.1505 -16.3675
lfingers 7.12502
lthumb 2.332 13.5995
rfemur -12.9964 1.44702 -2.2093
rtibia 11.1011
rfoot -11.3543 -22.648
rtoes -3.80674
lfemur -6.53021 7.91807 -10.1188
ltibia 26.6346
lfoot -21.9145 -13.6961
ltoes 36.5151
386
root 11.5294 17.8503 26.8575 -172.524 -54.2053 -180.485
lowerback 4.02036 -3.12991 -0.241376
upperback 4.6101 -4.35821 -3.82517
thorax 2.21817 -2.22788 -3.71546
lowerneck 3.83785 12.421 5.12276
upperneck -8.76673 16.597 -5.03751
head -2.59327 8.25584 -2.92893
rclavicle -9.22361e-014 -6.52014e-014
rhumerus -46.65 -10.1763 -29.212
rradius 39.3213
rwrist -25.2536
rhand -12.8608 -49.9306
rfingers 7.12502
rthumb 13.2273 -79.4909
lclavicle -9.22361e-014 -6.52014e-014
lhumerus 27.0558 -48.266 48.1864
lradius 31.6844
lwrist 12.3942
lhand -23.7139 -16.3021
lfingers 7.12502
lthumb 2.75364 13.6598
rfemur -12.2781 3.04524 -2.14914
rtibia 9.33126
rfoot -11.8325 -23.8168
rtoes -1.75347
lfemur -6.07627 8.22905 -10.2154
ltibia 26.0781
lfoot -22.2842 -13.0927
ltoes 35.2005
387
root 11.5132 17.8603 26.8795 -172.83 -53.7189 -180.403
lowerback 3.8461 -3.20794 -0.485094
upperback 4.64344 -4.46554 -3.84693
thorax 2.35979 -2.288 -3.6129
lowerneck 3.42229 12.5632 4.89961
upperneck -8.4337 16.7817 -4.65628
head -2.44865 8.34164 -2.72157
rclavicle -1.17681e-013 7.15625e-014
rhumerus -47.1073 -10.7391 -28.5776
rradius 40.1423
rwrist -25.6724
rhand -12.7765 -49.4451
rfingers 7.12502
rthumb 13.3086 -79.0001
lclavicle -1.17681e-013 7.15625e-014
lhumerus 28.2579 -49.027 48.9607
lradius 30.9355
lwrist 12.345
lhand -22.6885 -16.0397
lfingers 7.12502
lthumb 3.74395 13.9072
rfemur -11.1888 5.169 -2.14317
rtibia 7.21014
rfoot -13.0121 -25.3804
rtoes 2.96606
lfemur -5.38513 7.99096 -10.3457
ltibia 25.4355
lfoot -22.9009 -12.3478
ltoes 34.0501
388
root 11.5029 17.8671 26.8979 -173.207 -53.1967 -180.123
lowerback 3.66857 -3.22578 -0.540317
upperback 4.59975 -4.48656 -3.92042
thorax 2.41096 -2.29886 -3.66766
lowerneck 3.54266 12.5698 5.10861
upperneck -8.68553 16.8036 -4.67355
head -2.53506 8.34138 -2.78336
rclavicle -3.93594e-014 -1.43125e-014
rhumerus -47.8307 -11.3379 -28.0623
rradius 40.9764
rwrist -25.9437
rhand -12.7076 -48.514
rfingers 7.12502
rthumb 13.375 -78.0647
lclavicle -3.93594e-014 -1.43125e-014
lhumerus 29.4161 -50.1926 49.2595
lradius 30.8645
lwrist 12.5342
lhand -21.8125 -15.2621
lfingers 7.12502
lthumb 4.58983 14.6682
rfemur -10.3035 7.46526 -1.89784
rtibia 5.33275
rfoot -14.6257 -27.1012
rtoes 8.09783
lfemur -4.83875 7.93363 -10.3013
ltibia 24.908
lfoot -23.245 -11.9027
ltoes 33.8017
389
root 11.4952 17.8729 26.9151 -173.587 -52.6958 -179.841
lowerback 3.55417 -3.26891 -0.582737
upperback 4.52892 -4.54206 -3.97762
thorax 2.39697 -2.32697 -3.7063
lowerneck 3.82514 12.5944 5.3685
upperneck -9.01342 16.849 -4.8844
head -2.65397 8.35937 -2.93193
rclavicle 1.82882e-014 -3.18055e-014
rhumerus -48.5629 -12.1119 -27.4542
rradius 41.7579
rwrist -25.8673
rhand -12.384 -47.4503
rfingers 7.12502
rthumb 13.687 -76.9802
lclavicle 1.82882e-014 -3.18055e-014
lhumerus 30.5559 -51.455 49.4424
lradius 30.9127
lwrist 12.8148
lhand -21.4712 -14.4066
lfingers 7.12502
lthumb 4.91941 15.5163
rfemur -9.54513 9.23523 -1.52398
rtibia 3.96338
rfoot -15.1437 -28.9282
rtoes 7.30284
lfemur -4.31164 7.97758 -10.2014
ltibia 24.4136
lfoot -23.4585 -11.4996
ltoes 33.8358
390
root 11.4864 17.8768 26.9297 -173.942 -52.2765 -179.542
lowerback 3.30043 -3.36112 -0.626552
upperback 4.51223 -4.65766 -3.99924
thorax 2.51653 -2.38398 -3.71913
lowerneck 3.68825 12.7301 5.31039
upperneck -8.86407 17.0311 -4.74767
head -2.58596 8.44833 -2.85956
rclavicle -5.1684e-014 -3.65764e-014
rhumerus -49.0481 -13.0467 -26.8039
rradius 42.2822
rwrist -25.6849
rhand -11.981 -47.0486
rfingers 7.12502
rthumb 14.0753 -76.5519
lclavicle -5.1684e-014 -3.65764e-014
lhumerus 31.9051 -52.647 49.5259
lradius 30.7611
lwrist 13.3156
lhand -21.0688 -14.0131
lfingers 7.12502
lthumb 5.30788 15.9004
rfemur -8.87181 10.8299 -1.16266
rtibia 2.66302
rfoot -17.4646 -29.8304
rtoes 12.0941
lfemur -3.82122 7.92028 -10.0803
ltibia 23.8667
lfoot -23.6361 -11.1993
ltoes 34.4812
391
root 11.4731 17.8787 26.9427 -174.151 -51.8904 -179.451
lowerback 3.0569 -3.46371 -0.746852
upperback 4.49136 -4.78997 -4.06513
thorax 2.62774 -2.45206 -3.73504
lowerneck 3.62088 12.8912 5.19679
upperneck -8.84512 17.2473 -4.59148
head -2.58007 8.55265 -2.78824
rclavicle -1.55052e-013 4.77083e-015
rhumerus -49.5318 -13.5952 -26.389
rradius 42.876
rwrist -25.9412
rhand -12.0249 -47.0791
rfingers 7.12502
rthumb 14.033 -76.5854
lclavicle -1.55052e-013 4.77083e-015
lhumerus 33.2174 -53.8013 49.5809
lradius 30.5687
lwrist 13.6497
lhand -20.3292 -13.9913
lfingers 7.12502
lthumb 6.02195 15.9031
rfemur -8.17474 12.2757 -0.934252
rtibia 1.37722
rfoot -19.0887 -31.0493
rtoes 13.9016
lfemur -3.29706 7.72295 -10.1749
ltibia 23.3065
lfoot -23.8722 -11.0212
ltoes 35.3201
392
root 11.4595 17.8787 26.9524 -174.259 -51.5438 -179.542
lowerback 2.92163 -3.54712 -0.994599
upperback 4.42371 -4.9022 -4.14254
thorax 2.64066 -2.51491 -3.68261
lowerneck 3.765 13.0112 5.09244
upperneck -8.99848 17.4175 -4.45943
head -2.67085 8.63219 -2.75666
rclavicle -1.59028e-015 6.20208e-014
rhumerus -50.168 -13.7749 -26.1211
rradius 43.6561
rwrist -26.72
rhand -12.5994 -47.1904
rfingers 7.12502
rthumb 13.4793 -76.7342
lclavicle -1.59028e-015 6.20208e-014
lhumerus 34.2123 -54.8901 49.9604
lradius 30.435
lwrist 13.5447
lhand -19.5001 -14.0128
lfingers 7.12502
lthumb 6.82239 15.8573
rfemur -7.41476 13.882 -0.7623
rtibia 0.184286
rfoot -21.0075 -32.3307
rtoes 16.9424
lfemur -2.76085 7.64547 -10.3691
ltibia 22.8367
lfoot -24.0525 -10.8197
ltoes 35.3113
393
root 11.4526 17.8748 26.9565 -174.377 -51.1739 -179.533
lowerback 2.75475 -3.59873 -1.26605
upperback 4.29376 -4.96871 -4.18902
thorax 2.61439 -2.5545 -3.58499
lowerneck 3.78857 13.1125 4.90564
upperneck -8.90462 17.5691 -4.10913
head -2.6853 8.70033 -2.62091
rclavicle 7.27552e-014 2.70347e-014
rhumerus -50.898 -13.953 -25.8349
rradius 44.3576
rwrist -27.3583
rhand -13.0025 -47.1429
rfingers 7.12502
rthumb 13.0908 -76.7121
lclavicle 7.27552e-014 2.70347e-014
lhumerus 35.1648 -56.1542 50.2273
lradius 30.5787
lwrist 13.643
lhand -19.0017 -13.7658
lfingers 7.12502
lthumb 7.30348 16.0882
rfemur -6.82547 15.6147 -0.478196
rtibia -0.740315
rfoot -23.3876 -33.4114
rtoes 20.5284
lfemur -2.31634 7.74353 -10.4005
ltibia 22.3959
lfoot -24.1339 -10.6117
ltoes 35.1447
394
root 11.4506 17.8687 26.9565 -174.408 -50.6857 -179.514
lowerback 2.49744 -3.58596 -1.54397
upperback 4.14461 -4.94658 -4.28075
thorax 2.62047 -2.54941 -3.53762
lowerneck 3.92311 13.1873 4.91961
upperneck -9.01551 17.6858 -3.98867
head -2.7522 8.75034 -2.60669
rclavicle 3.53837e-014 9.38264e-014
rhumerus -51.7549 -14.526 -25.4543
rradius 44.8852
rwrist -27.4563
rhand -12.9991 -46.6719
rfingers 7.12502
rthumb 13.094 -76.2409
lclavicle 3.53837e-014 9.38264e-014
lhumerus 36.4258 -57.5688 50.0968
lradius 30.842
lwrist 14.0411
lhand -18.8385 -13.0987
lfingers 7.12502
lthumb 7.46104 16.7498
rfemur -6.4887 17.4102 -0.246841
rtibia -1.45565
rfoot -25.9825 -34.2902
rtoes 23.4428
lfemur -1.94231 7.85087 -10.4112
ltibia 21.9345
lfoot -24.3348 -10.253
ltoes 35.0149
395
root 11.4491 17.8649 26.9548 -174.325 -50.188 -179.668
lowerback 2.24252 -3.52343 -1.87268
upperback 4.03222 -4.86249 -4.47407
thorax 2.66191 -2.51648 -3.56947
lowerneck 4.09325 13.249 5.07862
upperneck -9.2658 17.7877 -3.9785
head -2.85063 8.78924 -2.65847
rclavicle -9.38264e-014 -2.70347e-014
rhumerus -52.7117 -15.2941 -25.0601
rradius 45.272
rwrist -27.5787
rhand -13.1449 -46.3634
rfingers 7.12502
rthumb 12.9535 -75.9413
lclavicle -9.38264e-014 -2.70347e-014
lhumerus 38.0275 -59.031 49.6817
lradius 30.9958
lwrist 14.4079
lhand -18.7866 -12.5031
lfingers 7.12502
lthumb 7.51111 17.3436
rfemur -6.19806 18.8344 -0.14253
rtibia -2.00103
rfoot -28.1415 -34.9581
rtoes 25.3823
lfemur -1.56527 7.97511 -10.5478
ltibia 21.5314
lfoot -24.7025 -9.5454
ltoes 32.9889
